<mxfile host="app.diagrams.net" modified="2024-10-10T09:04:58.665Z" agent="Mozilla/5.0 (Windows NT 10.0; Win64; x64; rv:131.0) Gecko/20100101 Firefox/131.0" etag="mB79TIDGtAfGw-rBPy3h" version="24.4.6" type="device">
  <diagram name="Side-1" id="ahuoDjvjlYFXdB81-Fc0">
    <mxGraphModel dx="1085" dy="1685" grid="1" gridSize="10" guides="1" tooltips="1" connect="1" arrows="1" fold="1" page="1" pageScale="1" pageWidth="850" pageHeight="1100" math="0" shadow="0">
      <root>
        <mxCell id="0" />
        <mxCell id="1" parent="0" />
        <mxCell id="OuR56DSyepuQQFWYlg5j-1" value="&lt;h1 style=&quot;margin-top: 0px;&quot;&gt;Program til at gætte et tal&lt;br&gt;&lt;/h1&gt;" style="text;html=1;whiteSpace=wrap;overflow=hidden;rounded=0;" vertex="1" parent="1">
          <mxGeometry x="180" y="-10" width="180" height="90" as="geometry" />
        </mxCell>
        <mxCell id="OuR56DSyepuQQFWYlg5j-7" value="" style="edgeStyle=orthogonalEdgeStyle;rounded=0;orthogonalLoop=1;jettySize=auto;html=1;" edge="1" parent="1" source="OuR56DSyepuQQFWYlg5j-4" target="OuR56DSyepuQQFWYlg5j-6">
          <mxGeometry relative="1" as="geometry" />
        </mxCell>
        <mxCell id="OuR56DSyepuQQFWYlg5j-4" value="&lt;div&gt;Opret hemmeligt&lt;/div&gt;&lt;div&gt;tal&lt;br&gt;&lt;/div&gt;" style="whiteSpace=wrap;html=1;" vertex="1" parent="1">
          <mxGeometry x="200" y="160" width="120" height="60" as="geometry" />
        </mxCell>
        <mxCell id="OuR56DSyepuQQFWYlg5j-9" value="" style="edgeStyle=orthogonalEdgeStyle;rounded=0;orthogonalLoop=1;jettySize=auto;html=1;" edge="1" parent="1" source="OuR56DSyepuQQFWYlg5j-6" target="OuR56DSyepuQQFWYlg5j-8">
          <mxGeometry relative="1" as="geometry" />
        </mxCell>
        <mxCell id="OuR56DSyepuQQFWYlg5j-6" value="&lt;div&gt;Bruger inputter &lt;br&gt;&lt;/div&gt;&lt;div&gt;tal&lt;br&gt;&lt;/div&gt;" style="shape=parallelogram;perimeter=parallelogramPerimeter;whiteSpace=wrap;html=1;fixedSize=1;" vertex="1" parent="1">
          <mxGeometry x="200" y="260" width="120" height="60" as="geometry" />
        </mxCell>
        <mxCell id="OuR56DSyepuQQFWYlg5j-13" value="JA" style="edgeStyle=orthogonalEdgeStyle;rounded=0;orthogonalLoop=1;jettySize=auto;html=1;" edge="1" parent="1" source="OuR56DSyepuQQFWYlg5j-8" target="OuR56DSyepuQQFWYlg5j-12">
          <mxGeometry relative="1" as="geometry" />
        </mxCell>
        <mxCell id="OuR56DSyepuQQFWYlg5j-17" value="NEJ" style="edgeStyle=orthogonalEdgeStyle;rounded=0;orthogonalLoop=1;jettySize=auto;html=1;" edge="1" parent="1" source="OuR56DSyepuQQFWYlg5j-8" target="OuR56DSyepuQQFWYlg5j-16">
          <mxGeometry relative="1" as="geometry" />
        </mxCell>
        <mxCell id="OuR56DSyepuQQFWYlg5j-8" value="&lt;div&gt;Er de to&lt;/div&gt;&lt;div&gt;tal ens?&lt;br&gt;&lt;/div&gt;" style="rhombus;whiteSpace=wrap;html=1;" vertex="1" parent="1">
          <mxGeometry x="200" y="350" width="120" height="110" as="geometry" />
        </mxCell>
        <mxCell id="OuR56DSyepuQQFWYlg5j-12" value="&lt;div&gt;Output&lt;/div&gt;&lt;div&gt;&quot;Tillykke du &lt;br&gt;&lt;/div&gt;&lt;div&gt;gættede rigtigt&quot;&lt;br&gt;&lt;/div&gt;" style="shape=parallelogram;perimeter=parallelogramPerimeter;whiteSpace=wrap;html=1;fixedSize=1;" vertex="1" parent="1">
          <mxGeometry x="70" y="470" width="120" height="60" as="geometry" />
        </mxCell>
        <mxCell id="OuR56DSyepuQQFWYlg5j-16" value="&lt;div&gt;Output &lt;br&gt;&lt;/div&gt;&lt;div&gt;&quot;Du har gættet&amp;nbsp;&lt;/div&gt;&lt;div&gt;forkert, prøv igen!&quot;&lt;br&gt;&lt;/div&gt;" style="shape=parallelogram;perimeter=parallelogramPerimeter;whiteSpace=wrap;html=1;fixedSize=1;" vertex="1" parent="1">
          <mxGeometry x="360" y="367.5" width="140" height="75" as="geometry" />
        </mxCell>
        <mxCell id="OuR56DSyepuQQFWYlg5j-22" style="edgeStyle=orthogonalEdgeStyle;rounded=0;orthogonalLoop=1;jettySize=auto;html=1;entryX=0.5;entryY=0;entryDx=0;entryDy=0;" edge="1" parent="1" source="OuR56DSyepuQQFWYlg5j-19" target="OuR56DSyepuQQFWYlg5j-4">
          <mxGeometry relative="1" as="geometry" />
        </mxCell>
        <mxCell id="OuR56DSyepuQQFWYlg5j-19" value="START" style="strokeWidth=2;html=1;shape=mxgraph.flowchart.terminator;whiteSpace=wrap;fillColor=#d5e8d4;strokeColor=#82b366;" vertex="1" parent="1">
          <mxGeometry x="210" y="70" width="100" height="60" as="geometry" />
        </mxCell>
        <mxCell id="OuR56DSyepuQQFWYlg5j-20" value="STOP" style="strokeWidth=2;html=1;shape=mxgraph.flowchart.terminator;whiteSpace=wrap;fillColor=#f8cecc;strokeColor=#b85450;" vertex="1" parent="1">
          <mxGeometry x="80" y="560" width="100" height="60" as="geometry" />
        </mxCell>
        <mxCell id="OuR56DSyepuQQFWYlg5j-21" style="edgeStyle=orthogonalEdgeStyle;rounded=0;orthogonalLoop=1;jettySize=auto;html=1;exitX=0.5;exitY=1;exitDx=0;exitDy=0;entryX=0.5;entryY=0;entryDx=0;entryDy=0;entryPerimeter=0;" edge="1" parent="1" source="OuR56DSyepuQQFWYlg5j-12" target="OuR56DSyepuQQFWYlg5j-20">
          <mxGeometry relative="1" as="geometry" />
        </mxCell>
        <mxCell id="OuR56DSyepuQQFWYlg5j-31" style="edgeStyle=orthogonalEdgeStyle;rounded=0;orthogonalLoop=1;jettySize=auto;html=1;" edge="1" parent="1">
          <mxGeometry relative="1" as="geometry">
            <mxPoint x="260" y="240" as="targetPoint" />
            <mxPoint x="430.0000000000001" y="367.5" as="sourcePoint" />
            <Array as="points">
              <mxPoint x="430" y="240" />
            </Array>
          </mxGeometry>
        </mxCell>
      </root>
    </mxGraphModel>
  </diagram>
</mxfile>
